Normalized EMG Linear Envelopes
nRows=266
nColumns=4

endheader
time	 med_gas_r	  soleus_r	 tib_ant_r	
3.19355	  0.007676	  0.035987	  0.006407	
3.22681	  0.007451	  0.029053	  0.006297	
3.26008	  0.007246	  0.022243	  0.006202	
3.29335	  0.007076	  0.016370	  0.006126	
3.32661	  0.006949	  0.011770	  0.006072	
3.35988	  0.006881	  0.008464	  0.006050	
3.39315	  0.006868	  0.006295	  0.006058	
3.42641	  0.006873	  0.005044	  0.006083	
3.45968	  0.006864	  0.004482	  0.006114	
3.49294	  0.006847	  0.004410	  0.006136	
3.52621	  0.006831	  0.004653	  0.006144	
3.55948	  0.006820	  0.005056	  0.006142	
3.59274	  0.006816	  0.005511	  0.006132	
3.62601	  0.006837	  0.005948	  0.006123	
3.65927	  0.006910	  0.006340	  0.006129	
3.69254	  0.007046	  0.006668	  0.006147	
3.72581	  0.007256	  0.006925	  0.006168	
3.75907	  0.007546	  0.007130	  0.006177	
3.79234	  0.007906	  0.007299	  0.006178	
3.8256	  0.008300	  0.007435	  0.006182	
3.85887	  0.008672	  0.007523	  0.006200	
3.89214	  0.008954	  0.007551	  0.006228	
3.9254	  0.009113	  0.007513	  0.006257	
3.95867	  0.009140	  0.007403	  0.006282	
3.99194	  0.009055	  0.007226	  0.006302	
4.0252	  0.008882	  0.007018	  0.006311	
4.05847	  0.008652	  0.006829	  0.006312	
4.09173	  0.008411	  0.006686	  0.006317	
4.125	  0.008210	  0.006615	  0.006353	
4.15827	  0.008085	  0.006652	  0.006441	
4.19153	  0.008010	  0.006800	  0.006578	
4.2248	  0.007985	  0.007022	  0.006748	
4.25806	  0.008084	  0.007261	  0.006931	
4.29133	  0.008346	  0.007477	  0.007117	
4.3246	  0.008730	  0.007600	  0.007281	
4.35786	  0.009122	  0.007553	  0.007394	
4.39113	  0.009441	  0.007380	  0.007434	
4.4244	  0.009656	  0.007173	  0.007451	
4.45766	  0.009669	  0.006991	  0.007497	
4.49093	  0.009431	  0.006843	  0.007606	
4.52419	  0.009033	  0.006727	  0.007802	
4.55746	  0.008580	  0.006642	  0.008079	
4.59073	  0.008169	  0.006584	  0.008405	
4.62399	  0.007868	  0.006549	  0.008715	
4.65726	  0.007703	  0.006536	  0.008902	
4.69052	  0.007643	  0.006537	  0.008827	
4.72379	  0.007662	  0.006556	  0.008530	
4.75706	  0.007775	  0.006607	  0.008148	
4.79032	  0.007954	  0.006707	  0.007779	
4.82359	  0.008142	  0.006862	  0.007470	
4.85685	  0.008269	  0.007107	  0.007242	
4.89012	  0.008262	  0.007480	  0.007094	
4.92339	  0.008071	  0.007981	  0.007013	
4.95665	  0.007753	  0.008592	  0.006971	
4.98992	  0.007379	  0.009251	  0.006945	
5.02319	  0.007047	  0.009872	  0.006928	
5.05645	  0.006845	  0.010614	  0.006922	
5.08972	  0.006814	  0.011836	  0.006921	
5.12298	  0.006935	  0.013808	  0.006919	
5.15625	  0.007173	  0.016655	  0.006910	
5.18952	  0.007515	  0.020326	  0.006897	
5.22278	  0.007941	  0.024469	  0.006882	
5.25605	  0.008386	  0.028336	  0.006866	
5.28931	  0.008738	  0.030676	  0.006859	
5.32258	  0.008915	  0.030028	  0.006864	
5.35585	  0.008952	  0.026881	  0.006886	
5.38911	  0.008919	  0.022554	  0.006920	
5.42238	  0.008837	  0.018067	  0.006956	
5.45565	  0.008740	  0.014039	  0.006995	
5.48891	  0.008647	  0.010760	  0.007035	
5.52218	  0.008529	  0.008310	  0.007068	
5.55544	  0.008384	  0.006650	  0.007093	
5.58871	  0.008260	  0.005662	  0.007109	
5.62198	  0.008158	  0.005193	  0.007120	
5.65524	  0.008082	  0.005097	  0.007147	
5.68851	  0.008045	  0.005244	  0.007200	
5.72177	  0.008045	  0.005531	  0.007280	
5.75504	  0.008099	  0.005901	  0.007368	
5.78831	  0.008205	  0.006345	  0.007437	
5.82157	  0.008316	  0.006830	  0.007427	
5.85484	  0.008383	  0.007303	  0.007248	
5.8881	  0.008356	  0.007702	  0.006789	
5.92137	  0.008229	  0.007950	  0.005948	
5.95464	  0.008028	  0.007940	  0.004675	
5.9879	  0.007758	  0.007603	  0.002956	
6.02117	  0.007403	  0.007016	  0.000820	
6.05444	  0.006984	  0.006281	 -0.001594	
6.0877	  0.006555	  0.005510	 -0.003976	
6.12097	  0.006197	  0.004847	 -0.005773	
6.15423	  0.006030	  0.004497	 -0.006124	
6.1875	  0.006180	  0.004716	 -0.003812	
6.22077	  0.006774	  0.005852	  0.002756	
6.25403	  0.007930	  0.008358	  0.015476	
6.2873	  0.009739	  0.012731	  0.036332	
6.32056	  0.012244	  0.019410	  0.067008	
6.35383	  0.015443	  0.028631	  0.108265	
6.3871	  0.019275	  0.040223	  0.159024	
6.42036	  0.023446	  0.053356	  0.215164	
6.45363	  0.027361	  0.066353	  0.269925	
6.4869	  0.030508	  0.077793	  0.318625	
6.52016	  0.032647	  0.087155	  0.357468	
6.55343	  0.033773	  0.094034	  0.386538	
6.58669	  0.033924	  0.098314	  0.407918	
6.61996	  0.033191	  0.100047	  0.422029	
6.65323	  0.031596	  0.099322	  0.425767	
6.68649	  0.029589	  0.096494	  0.420469	
6.71976	  0.027724	  0.092018	  0.410176	
6.75302	  0.026311	  0.086485	  0.397617	
6.78629	  0.025451	  0.080637	  0.386631	
6.81956	  0.025096	  0.075157	  0.379656	
6.85282	  0.025211	  0.070593	  0.377490	
6.88609	  0.025778	  0.067623	  0.379867	
6.91935	  0.026611	  0.066578	  0.385131	
6.95262	  0.027447	  0.067174	  0.390126	
6.98589	  0.028169	  0.069097	  0.394171	
7.01915	  0.028892	  0.072390	  0.399575	
7.05242	  0.029781	  0.077042	  0.407791	
7.08569	  0.030917	  0.082967	  0.418217	
7.11895	  0.032131	  0.089835	  0.430909	
7.15222	  0.033280	  0.097152	  0.445839	
7.18548	  0.034195	  0.104082	  0.461674	
7.21875	  0.034761	  0.109892	  0.475982	
7.25202	  0.034918	  0.114213	  0.487314	
7.28528	  0.034693	  0.116551	  0.494115	
7.31855	  0.034239	  0.117023	  0.496706	
7.35181	  0.033789	  0.116160	  0.496543	
7.38508	  0.033558	  0.114775	  0.495786	
7.41835	  0.033752	  0.114156	  0.495816	
7.45161	  0.034540	  0.115551	  0.497969	
7.48488	  0.035895	  0.119594	  0.505711	
7.51815	  0.037643	  0.126221	  0.522233	
7.55141	  0.039716	  0.135059	  0.546662	
7.58468	  0.042090	  0.145652	  0.575256	
7.61794	  0.044558	  0.156316	  0.604185	
7.65121	  0.046722	  0.165168	  0.630834	
7.68448	  0.048062	  0.171369	  0.652846	
7.71774	  0.048323	  0.173675	  0.667952	
7.75101	  0.047587	  0.172073	  0.672467	
7.78427	  0.046210	  0.167801	  0.665639	
7.81754	  0.044615	  0.161782	  0.650809	
7.85081	  0.043074	  0.154522	  0.631283	
7.88407	  0.041724	  0.146926	  0.609892	
7.91734	  0.040651	  0.139781	  0.589355	
7.9506	  0.039917	  0.133438	  0.572311	
7.98387	  0.039442	  0.128021	  0.560378	
8.01714	  0.039143	  0.123796	  0.554417	
8.0504	  0.039038	  0.121428	  0.555181	
8.08367	  0.039077	  0.121461	  0.562413	
8.11694	  0.039382	  0.123773	  0.575586	
8.1502	  0.040053	  0.127497	  0.591826	
8.18347	  0.041077	  0.131612	  0.608315	
8.21673	  0.042282	  0.135416	  0.623521	
8.25	  0.043352	  0.138116	  0.635418	
8.28327	  0.044039	  0.139456	  0.644829	
8.31653	  0.044374	  0.140050	  0.653445	
8.3498	  0.044538	  0.140723	  0.661845	
8.38306	  0.044676	  0.141996	  0.671813	
8.41633	  0.044822	  0.143521	  0.685147	
8.4496	  0.045008	  0.144504	  0.700525	
8.48286	  0.045164	  0.144932	  0.715247	
8.51613	  0.045273	  0.145268	  0.727253	
8.5494	  0.045306	  0.146192	  0.738589	
8.58266	  0.045100	  0.148008	  0.750425	
8.61593	  0.044628	  0.150740	  0.759795	
8.64919	  0.044041	  0.154533	  0.765365	
8.68246	  0.043572	  0.159243	  0.767674	
8.71573	  0.043483	  0.164355	  0.766394	
8.74899	  0.043957	  0.169657	  0.763069	
8.78226	  0.044897	  0.174596	  0.758169	
8.81552	  0.046155	  0.178018	  0.752386	
8.84879	  0.047611	  0.179093	  0.744886	
8.88206	  0.049005	  0.178089	  0.736713	
8.91532	  0.050033	  0.176068	  0.731559	
8.94859	  0.050641	  0.173989	  0.727977	
8.98185	  0.050897	  0.172315	  0.722959	
9.01512	  0.050830	  0.171351	  0.714964	
9.04839	  0.050529	  0.170978	  0.704534	
9.08165	  0.050102	  0.170880	  0.692906	
9.11492	  0.049694	  0.170673	  0.682090	
9.14819	  0.049462	  0.169928	  0.672884	
9.18145	  0.049457	  0.168509	  0.664652	
9.21472	  0.049560	  0.166373	  0.657078	
9.24798	  0.049468	  0.163442	  0.651029	
9.28125	  0.048980	  0.159884	  0.645991	
9.31452	  0.048198	  0.156340	  0.641316	
9.34778	  0.047400	  0.153854	  0.636976	
9.38105	  0.046730	  0.152785	  0.632336	
9.41431	  0.046250	  0.152839	  0.627702	
9.44758	  0.046084	  0.153460	  0.622542	
9.48085	  0.046318	  0.154257	  0.617354	
9.51411	  0.046722	  0.154448	  0.613112	
9.54738	  0.046958	  0.153450	  0.607829	
9.58065	  0.046954	  0.151133	  0.600626	
9.61391	  0.046771	  0.148387	  0.593397	
9.64718	  0.046574	  0.145962	  0.586051	
9.68044	  0.046322	  0.143724	  0.576618	
9.71371	  0.045788	  0.140908	  0.564621	
9.74698	  0.044941	  0.137226	  0.551788	
9.78024	  0.043834	  0.132949	  0.540697	
9.81351	  0.042434	  0.128638	  0.532317	
9.84677	  0.040701	  0.124449	  0.526664	
9.88004	  0.038928	  0.120873	  0.523284	
9.91331	  0.037380	  0.117914	  0.522462	
9.94657	  0.036163	  0.115150	  0.524750	
9.97984	  0.035277	  0.111996	  0.532201	
10.0131	  0.034740	  0.108442	  0.544313	
10.0464	  0.034523	  0.105148	  0.558345	
10.0796	  0.034568	  0.102454	  0.573036	
10.1129	  0.034906	  0.100567	  0.586306	
10.1462	  0.035538	  0.099481	  0.595329	
10.1794	  0.036325	  0.099386	  0.598674	
10.2127	  0.037036	  0.100561	  0.597081	
10.246	  0.037610	  0.102652	  0.591469	
10.2792	  0.038151	  0.105465	  0.583622	
10.3125	  0.038656	  0.108664	  0.574333	
10.3458	  0.039003	  0.111669	  0.564431	
10.379	  0.039161	  0.113880	  0.554419	
10.4123	  0.039243	  0.115000	  0.546653	
10.4456	  0.039353	  0.114895	  0.542894	
10.4788	  0.039413	  0.113693	  0.541978	
10.5121	  0.039364	  0.112068	  0.542301	
10.5454	  0.039112	  0.110240	  0.541759	
10.5786	  0.038509	  0.108349	  0.539000	
10.6119	  0.037565	  0.107023	  0.532578	
10.6452	  0.036327	  0.106493	  0.525216	
10.6784	  0.034895	  0.106706	  0.520966	
10.7117	  0.033417	  0.107129	  0.522510	
10.745	  0.032100	  0.107386	  0.529088	
10.7782	  0.031132	  0.107696	  0.537699	
10.8115	  0.030735	  0.108279	  0.544240	
10.8448	  0.030953	  0.108911	  0.546171	
10.878	  0.031671	  0.109337	  0.540994	
10.9113	  0.032680	  0.109686	  0.529119	
10.9446	  0.033705	  0.110146	  0.514832	
10.9778	  0.034549	  0.110484	  0.500440	
11.0111	  0.035242	  0.110668	  0.488591	
11.0444	  0.035893	  0.111027	  0.481649	
11.0776	  0.036585	  0.111572	  0.480168	
11.1109	  0.037336	  0.112569	  0.483189	
11.1442	  0.038051	  0.113943	  0.489213	
11.1774	  0.038585	  0.115184	  0.497502	
11.2107	  0.038841	  0.116073	  0.506916	
11.244	  0.038678	  0.116151	  0.514639	
11.2772	  0.038131	  0.115305	  0.517503	
11.3105	  0.037262	  0.114026	  0.513966	
11.3437	  0.036073	  0.112301	  0.501462	
11.377	  0.034561	  0.109887	  0.477324	
11.4103	  0.032594	  0.106419	  0.439325	
11.4435	  0.030261	  0.103037	  0.389978	
11.4768	  0.027814	  0.101150	  0.333467	
11.5101	  0.025692	  0.102175	  0.275266	
11.5433	  0.024312	  0.106897	  0.219341	
11.5766	  0.023757	  0.114530	  0.168439	
11.6099	  0.023928	  0.124203	  0.124719	
11.6431	  0.024727	  0.135769	  0.088768	
11.6764	  0.025875	  0.148256	  0.060413	
11.7097	  0.026848	  0.159359	  0.038922	
11.7429	  0.027151	  0.167683	  0.023677	
11.7762	  0.026835	  0.173647	  0.013723	
11.8095	  0.026139	  0.177003	  0.007874	
11.8427	  0.025028	  0.174932	  0.004941	
11.876	  0.023402	  0.164718	  0.003890	
11.9093	  0.021293	  0.147065	  0.003984	
11.9425	  0.018900	  0.124591	  0.004719	
11.9758	  0.016476	  0.099923	  0.005716	
12.0091	  0.014176	  0.075375	  0.006693	
